<svg xmlns="http://www.w3.org/2000/svg" width="53" height="50" fill="none" viewBox="0 0 53 50">
  <path fill="#000" fill-rule="evenodd" d="M8.147 13.08a4.688 4.688 0 0 0-3.315 5.742l5.069 18.89v.83a4.688 4.688 0 0 0 4.687 4.687h27.083a4.688 4.688 0 0 0 4.688-4.688V20.467a4.688 4.688 0 0 0-4.598-4.687l-1.713-6.394a4.687 4.687 0 0 0-5.741-3.315l-26.16 7.01Zm35.087 9.456v-2.07c0-.862-.7-1.562-1.563-1.562H14.588c-.863 0-1.562.7-1.562 1.563v2.069h30.208ZM9.9 25.664v-5.197a4.688 4.688 0 0 1 4.687-4.688h23.938l-1.497-5.585a1.562 1.562 0 0 0-1.913-1.104L8.956 16.1a1.563 1.563 0 0 0-1.105 1.913l2.05 7.65Zm3.125 2.7h30.208V38.54c0 .863-.7 1.563-1.563 1.563H14.588c-.863 0-1.562-.7-1.562-1.563V28.364Z" clip-rule="evenodd"/>
</svg>
