<svg xmlns="http://www.w3.org/2000/svg" width="50" height="50" fill="none" viewBox="0 0 50 50">
  <path stroke="#000" stroke-linecap="round" stroke-linejoin="round" stroke-miterlimit="10" stroke-width="2.5" d="M10.417 20.833h4.166c4.167 0 6.25-2.083 6.25-6.25v-4.166c0-4.167-2.083-6.25-6.25-6.25h-4.166c-4.167 0-6.25 2.083-6.25 6.25v4.166c0 4.167 2.083 6.25 6.25 6.25Zm25 0h4.166c4.167 0 6.25-2.083 6.25-6.25v-4.166c0-4.167-2.083-6.25-6.25-6.25h-4.166c-4.167 0-6.25 2.083-6.25 6.25v4.166c0 4.167 2.083 6.25 6.25 6.25Zm0 25h4.166c4.167 0 6.25-2.083 6.25-6.25v-4.166c0-4.167-2.083-6.25-6.25-6.25h-4.166c-4.167 0-6.25 2.083-6.25 6.25v4.166c0 4.167 2.083 6.25 6.25 6.25Zm-25 0h4.166c4.167 0 6.25-2.083 6.25-6.25v-4.166c0-4.167-2.083-6.25-6.25-6.25h-4.166c-4.167 0-6.25 2.083-6.25 6.25v4.166c0 4.167 2.083 6.25 6.25 6.25Z"/>
</svg>
