<svg xmlns="http://www.w3.org/2000/svg" width="50" height="50" fill="none" viewBox="0 0 50 50">
  <path stroke="#000" stroke-width="2" d="M14.016 42.82a.078.078 0 0 1-.11 0c-.781-.867-9.133-10.336-9.133-16.61 0-7.765 5.079-9.562 9.188-9.562 3.781 0 8.64 2.032 8.64 9.563 0 6.477-7.859 15.758-8.585 16.61Z"/>
  <path stroke="#000" stroke-width="2" d="M13.688 28.227a3.711 3.711 0 1 0 0-7.422 3.711 3.711 0 0 0 0 7.422Zm25.046-1.063a.086.086 0 0 1-.117 0c-.68-.781-7.18-8.164-7.18-13.078 0-6.125 4-7.54 7.243-7.54 2.976 0 6.804 1.563 6.804 7.54 0 5.07-6.109 12.328-6.75 13.078Z"/>
  <path stroke="#000" stroke-width="2" d="M38.46 16.46a2.93 2.93 0 1 0 .001-5.858 2.93 2.93 0 0 0 0 5.859Zm-24.5 26.423c1 .302 2.017.534 3.048.695"/>
  <path stroke="#000" stroke-dasharray="97.5 36.5" stroke-width="2" d="M19.281 43.805c2.18.093 4.57-.22 6.172-1.625 4.531-3.977 2.258-8.79 5.274-11.492a13.062 13.062 0 0 1 3.851-2.344"/>
  <path stroke="#000" stroke-width="2" d="M35.648 27.969a17.963 17.963 0 0 1 3.032-.742"/>
</svg>
