<svg xmlns="http://www.w3.org/2000/svg" width="50" height="50" fill="none" viewBox="0 0 50 50">
  <path stroke="#000" stroke-width="3" d="M25 45.833c11.506 0 20.833-9.327 20.833-20.833 0-11.506-9.327-20.833-20.833-20.833C13.494 4.167 4.167 13.494 4.167 25c0 11.506 9.327 20.833 20.833 20.833Z"/>
  <path stroke="#000" stroke-linecap="round" stroke-width="3" d="M25 12.5v25m6.25-17.708c0-2.877-2.798-5.209-6.25-5.209s-6.25 2.332-6.25 5.209C18.75 22.668 21.548 25 25 25s6.25 2.332 6.25 5.208c0 2.877-2.798 5.209-6.25 5.209s-6.25-2.332-6.25-5.209"/>
</svg>
