<svg xmlns="http://www.w3.org/2000/svg" width="50" height="50" fill="none" viewBox="0 0 50 50">
  <path fill="#000" fill-rule="evenodd" d="M32.278 14.448c.65.567.717 1.555.149 2.205l-16.369 18.75a1.563 1.563 0 0 1-2.354 0l-6.548-7.5a1.563 1.563 0 0 1 2.354-2.055l5.37 6.151 15.193-17.402a1.563 1.563 0 0 1 2.205-.149Zm10.467.176c.625.595.649 1.584.053 2.209l-17.857 18.75a1.562 1.562 0 0 1-2.375-.131l-.892-1.172a1.562 1.562 0 0 1 2.24-2.15l16.622-17.452a1.563 1.563 0 0 1 2.209-.054Z" clip-rule="evenodd"/>
</svg>
