<svg xmlns="http://www.w3.org/2000/svg" width="40" height="50" fill="none" viewBox="0 0 40 50">
  <path fill="#000" d="M18.676 29.278c-3.355.656-5.354 2.72-5.354 5.65 0 3.14 2.739 5.672 6.143 5.672 5.058 0 9.153-3.891 9.153-8.697 0-2.508-.37-4.97-1.134-7.313-1.95 2.508-5.428 4.032-8.808 4.688ZM23.438 0s1.825 6.212 1.825 11.252c0 4.829-3.33 8.743-8.413 8.743-5.107 0-8.955-3.914-8.955-8.743l.074-.844C2.985 16.034 0 23.324 0 31.248 0 41.607 8.832 50 19.737 50c10.904 0 19.737-8.392 19.737-18.753 0-12.635-6.39-23.91-16.036-31.247Zm-3.701 45.312c-8.166 0-14.803-6.306-14.803-14.065 0-3.586.74-7.126 2.122-10.384 2.492 2.367 5.946 3.82 9.794 3.82 6.563 0 11.72-4.29 13.027-10.384 3.034 5.157 4.662 10.947 4.662 16.948 0 7.76-6.636 14.065-14.802 14.065Z"/>
</svg>
