<svg xmlns="http://www.w3.org/2000/svg" width="30" height="30" fill="currentColor" viewBox="0 0 30 30">
  <path fill-rule="evenodd" d="M15.563 6.13a.938.938 0 0 0-1.126 0l-8.124 6.093a.938.938 0 0 0-.375.75v10.152c0 .518.42.937.937.937h4.375V21.25a3.75 3.75 0 0 1 7.5 0v2.812h4.375c.518 0 .938-.42.938-.937V12.973a.937.937 0 0 0-.375-.75l-8.125-6.094Zm-2.25-1.5c1-.75 2.374-.75 3.374 0l8.125 6.093a2.812 2.812 0 0 1 1.125 2.25v10.152a2.813 2.813 0 0 1-2.812 2.812h-5.313a.937.937 0 0 1-.937-.937v-3.75a1.875 1.875 0 0 0-3.75 0V25c0 .518-.42.937-.938.937H6.875a2.812 2.812 0 0 1-2.813-2.812V12.973c0-.885.417-1.719 1.125-2.25l8.125-6.094Z" clip-rule="evenodd"/>
</svg>
