<svg width="60" height="60" viewBox="0 0 60 60" fill="none" xmlns="http://www.w3.org/2000/svg">
<rect y="30" width="42.4264" height="42.4264" rx="10" transform="rotate(-45 0 30)" fill="white"/>
<path d="M26.456 44.784C25.2827 44.784 24.472 44.5493 24.024 44.08C23.576 43.632 23.3413 43.0453 23.32 42.32C23.32 41.7013 23.4373 40.9653 23.672 40.112C23.928 39.2373 24.184 38.4053 24.44 37.616C24.952 36.1013 25.4853 34.608 26.04 33.136C26.5947 31.664 27.1493 30.2453 27.704 28.88C28.28 27.5147 28.824 26.2133 29.336 24.976C29.8693 23.7387 30.36 22.5973 30.808 21.552C29.3573 21.5733 28.0987 21.616 27.032 21.68C25.9867 21.744 25.0267 21.8293 24.152 21.936C23.2773 22.0213 22.3707 22.1493 21.432 22.32C21.5387 21.424 21.9547 20.7413 22.68 20.272C23.4267 19.7813 24.4187 19.44 25.656 19.248C26.8933 19.056 28.312 18.96 29.912 18.96C30.744 18.96 31.5227 18.9813 32.248 19.024C32.9947 19.0453 33.6987 19.088 34.36 19.152C35.0427 19.216 35.704 19.28 36.344 19.344C37.688 19.472 38.7547 19.5573 39.544 19.6C40.3547 19.6427 40.9307 19.664 41.272 19.664C40.632 20.2613 39.8213 20.6987 38.84 20.976C37.88 21.232 36.8667 21.392 35.8 21.456C34.7333 21.52 33.72 21.552 32.76 21.552C31.736 24.0693 30.7973 26.6827 29.944 29.392C29.0907 32.1013 28.3013 34.7787 27.576 37.424C27.2987 38.448 27.064 39.3227 26.872 40.048C26.7013 40.752 26.5733 41.4027 26.488 42C26.4027 42.576 26.36 43.1947 26.36 43.856C26.36 43.9627 26.36 44.08 26.36 44.208C26.3813 44.3573 26.4133 44.5493 26.456 44.784Z" fill="#9B54FF"/>
</svg>
