<svg xmlns="http://www.w3.org/2000/svg" width="50" height="50" fill="none" viewBox="0 0 50 50">
  <path stroke="#000" stroke-linecap="round" stroke-linejoin="round" stroke-miterlimit="10" stroke-width="3" d="m32.208 36.417 2.021 1.333c1.167.792 2.75-.063 2.75-1.48V32.5c2.646 0 4.875-.875 6.417-2.438 1.562-1.541 2.437-3.77 2.437-6.416V13.02c0-5.313-3.541-8.854-8.854-8.854H19.271c-5.313 0-8.854 3.541-8.854 8.854v5.77m21.791 17.626c.188-.646.271-1.355.271-2.105v-8.479c0-4.25-2.833-7.083-7.083-7.083H11.25c-.292 0-.562.02-.833.042m21.791 17.625c-.77 3.062-3.312 4.979-6.812 4.979h-5.667l-6.291 4.187c-.938.646-2.188-.041-2.188-1.166v-3.021c-2.125 0-3.896-.709-5.125-1.938-1.25-1.25-1.958-3.02-1.958-5.146v-8.479c0-3.958 2.458-6.687 6.25-7.041"/>
</svg>
