<svg xmlns="http://www.w3.org/2000/svg" width="50" height="50" fill="none" viewBox="0 0 50 50">
  <path stroke="#000" stroke-linecap="round" stroke-linejoin="round" stroke-width="3" d="M25 19.417c2.48 0 4.5-2.021 4.5-4.5 0-2.48-2.02-4.5-4.5-4.5s-4.5 2.02-4.5 4.5c0 2.479 2.02 4.5 4.5 4.5ZM14.146 39.583c2.479 0 4.5-2.02 4.5-4.5 0-2.479-2.021-4.5-4.5-4.5-2.48 0-4.5 2.021-4.5 4.5 0 2.48 2 4.5 4.5 4.5Zm21.708 0c2.48 0 4.5-2.02 4.5-4.5 0-2.479-2.02-4.5-4.5-4.5s-4.5 2.021-4.5 4.5c0 2.48 2.02 4.5 4.5 4.5Z"/>
</svg>
