<svg xmlns="http://www.w3.org/2000/svg" width="50" height="50" fill="none" viewBox="0 0 50 50">
  <path fill="#000" d="m11.354 28.875 1.285.774.004-.006-1.289-.768Zm-2.396 3.98-1.285-.775 1.285.774Zm2.25 6.103-.48 1.421.005.002.475-1.423Zm27.646 0-.47-1.424-.005.002.475 1.422Zm2.25-6.104 1.287-.772-.002-.002-1.285.774Zm-2.396-3.979-1.299.75.007.012.007.012 1.285-.774ZM28.896 6.667l-.418 1.44a1.5 1.5 0 0 0 1.814-1.988l-1.396.548Zm-2-.417-.186 1.488.005.001.18-1.489Zm-5.708.417-1.397-.548a1.5 1.5 0 0 0 1.815 1.988l-.418-1.44Zm3.854-2.104c-7.725 0-14 6.275-14 14h3c0-6.068 4.932-11 11-11v-3Zm-14 14v6.02h3v-6.02h-3Zm0 6.02c0 .455-.103 1.115-.297 1.815s-.447 1.32-.68 1.709l2.578 1.536c.413-.694.754-1.585.992-2.442.239-.858.407-1.802.407-2.618h-3Zm-.973 3.518-2.396 3.98 2.57 1.547 2.396-3.98-2.57-1.547Zm-2.396 3.98c-.952 1.581-1.149 3.353-.567 4.924.582 1.57 1.883 2.786 3.621 3.374l.962-2.841c-.97-.329-1.533-.936-1.77-1.574-.235-.637-.203-1.46.325-2.337l-2.57-1.546Zm3.06 8.3a45.085 45.085 0 0 0 28.597 0l-.951-2.845a42.085 42.085 0 0 1-26.695 0l-.95 2.845Zm28.592.002c3.439-1.137 4.932-5.19 3.066-8.3l-2.573 1.543c.884 1.472.168 3.378-1.435 3.908l.942 2.849Zm3.064-8.303-2.396-3.979-2.57 1.548 2.396 3.979 2.57-1.548Zm-2.381-3.955c-.229-.395-.478-1.02-.67-1.722-.194-.703-.296-1.364-.296-1.82h-3c0 .816.168 1.76.402 2.613.235.856.568 1.741.965 2.429l2.599-1.5Zm-.966-3.542v-6.02h-3v6.02h3Zm0-6.02c0-7.704-6.297-14-14-14v3c6.046 0 11 4.953 11 11h3ZM29.314 5.226a14.11 14.11 0 0 0-2.238-.465l-.36 2.978c.594.072 1.181.2 1.762.368l.836-2.88Zm-2.232-.464c-2.191-.274-4.314-.117-6.313.464l.837 2.881c1.585-.46 3.295-.595 5.104-.369l.372-2.976Zm-4.498 2.452a2.636 2.636 0 0 1 2.458-1.672v-3a5.636 5.636 0 0 0-5.251 3.577l2.793 1.095Zm2.458-1.672c1.115 0 2.072.689 2.457 1.672l2.794-1.095a5.636 5.636 0 0 0-5.251-3.577v3Zm4.75 34.166c0 2.61-2.141 4.75-4.75 4.75v3c4.266 0 7.75-3.484 7.75-7.75h-3Zm-4.75 4.75c-1.294 0-2.5-.538-3.356-1.394l-2.122 2.122a7.772 7.772 0 0 0 5.478 2.272v-3Zm-3.356-1.394a4.772 4.772 0 0 1-1.394-3.356h-3c0 2.124.878 4.084 2.272 5.478l2.122-2.122Z"/>
</svg>
