<svg xmlns="http://www.w3.org/2000/svg" width="28" height="28" fill="currentColor" viewBox="0 0 28 28">
  <path fill-rule="evenodd" d="M13.125 3.08c-5.96 0-10.792 4.637-10.792 10.358 0 5.72 4.832 10.357 10.792 10.357a11.02 11.02 0 0 0 6.985-2.462l4.061 3.9a.9.9 0 0 0 1.238 0 .817.817 0 0 0 0-1.189l-4.061-3.898c1.602-1.808 2.569-4.15 2.569-6.708 0-5.72-4.832-10.358-10.792-10.358ZM4.083 13.438c0-4.793 4.048-8.678 9.042-8.678s9.042 3.885 9.042 8.678c0 4.792-4.048 8.677-9.042 8.677s-9.042-3.885-9.042-8.677Z" clip-rule="evenodd"/>
</svg>
