<svg xmlns="http://www.w3.org/2000/svg" width="50" height="50" fill="none" viewBox="0 0 50 50">
  <path stroke="#000" stroke-linecap="round" stroke-linejoin="round" stroke-miterlimit="10" stroke-width="3" d="M25 26.042a4.167 4.167 0 1 0 0-8.334 4.167 4.167 0 0 0 0 8.334Zm0 0v6.25m18.563-9.125c0 10.187-7.396 19.729-17.5 22.52a4.084 4.084 0 0 1-2.125 0c-10.105-2.791-17.5-12.333-17.5-22.52V14.02c0-1.709 1.291-3.646 2.895-4.292l11.604-4.75a10.807 10.807 0 0 1 8.146 0l11.605 4.75c1.583.646 2.895 2.583 2.895 4.292l-.02 9.146Z"/>
</svg>
