<svg xmlns="http://www.w3.org/2000/svg" width="50" height="50" fill="none" viewBox="0 0 50 50">
  <path stroke="#000" stroke-linecap="round" stroke-linejoin="round" stroke-miterlimit="10" stroke-width="3" d="M25 31.25a6.25 6.25 0 1 0 0-12.5 6.25 6.25 0 0 0 0 12.5Z"/>
  <path stroke="#000" stroke-linecap="round" stroke-linejoin="round" stroke-miterlimit="10" stroke-width="3" d="M4.167 26.833v-3.666a3.97 3.97 0 0 1 3.958-3.959c3.77 0 5.313-2.666 3.417-5.937A3.956 3.956 0 0 1 13 7.875l3.604-2.063c1.646-.979 3.771-.395 4.75 1.25l.23.396c1.874 3.271 4.958 3.271 6.854 0l.229-.396c.979-1.645 3.104-2.229 4.75-1.25l3.604 2.063a3.956 3.956 0 0 1 1.458 5.396c-1.896 3.27-.354 5.937 3.417 5.937a3.97 3.97 0 0 1 3.958 3.959v3.666a3.97 3.97 0 0 1-3.958 3.959c-3.77 0-5.313 2.666-3.417 5.937 1.084 1.896.438 4.313-1.458 5.396l-3.604 2.063c-1.646.979-3.771.395-4.75-1.25l-.23-.396c-1.874-3.271-4.958-3.271-6.854 0l-.229.395c-.979 1.646-3.104 2.23-4.75 1.25L13 42.126a3.956 3.956 0 0 1-1.458-5.396c1.896-3.27.354-5.937-3.417-5.937a3.97 3.97 0 0 1-3.958-3.959Z"/>
</svg>
