<svg xmlns="http://www.w3.org/2000/svg" width="50" height="50" fill="none" viewBox="0 0 50 50">
  <path fill="#000" d="M25 13.5a1.5 1.5 0 0 0 0-3v3ZM40.5 26a1.5 1.5 0 0 0-3 0h3ZM39 13.5a1.5 1.5 0 0 0 0-3v3Zm-8.176-3a1.5 1.5 0 0 0 0 3v-3ZM40.5 12a1.5 1.5 0 0 0-3 0h3Zm-3 8.282a1.5 1.5 0 0 0 3 0h-3Zm2.56-7.221a1.5 1.5 0 0 0-2.12-2.122l2.12 2.122ZM23.94 24.939a1.5 1.5 0 1 0 2.12 2.122l-2.12-2.122ZM25 10.5h-6v3h6v-3Zm-6 0A9.5 9.5 0 0 0 9.5 20h3a6.5 6.5 0 0 1 6.5-6.5v-3ZM9.5 20v12h3V20h-3Zm0 12a9.5 9.5 0 0 0 9.5 9.5v-3a6.5 6.5 0 0 1-6.5-6.5h-3Zm9.5 9.5h12v-3H19v3Zm12 0a9.5 9.5 0 0 0 9.5-9.5h-3a6.5 6.5 0 0 1-6.5 6.5v3Zm9.5-9.5v-6h-3v6h3ZM39 10.5h-8.176v3H39v-3ZM37.5 12v8.282h3V12h-3Zm.44-1.06-14 14 2.12 2.12 14-14-2.12-2.12Z"/>
</svg>
