<svg xmlns="http://www.w3.org/2000/svg" width="50" height="50" fill="none" viewBox="0 0 50 50">
  <path fill="#000" fill-rule="evenodd" d="M25 .989a3.714 3.714 0 0 0-3.359 2.129l-5.67 11.446a1.917 1.917 0 0 0-.032.068l-.011.015-.018.006a1.565 1.565 0 0 0-.065.009l-12.484 1.85a3.715 3.715 0 0 0-2.204 6.384l9.139 8.817.02.02a.108.108 0 0 1 .033.097l-2.18 12.756a3.75 3.75 0 0 0 5.45 3.957l.005-.002 11.248-5.945a.322.322 0 0 1 .256 0l11.248 5.945a3.754 3.754 0 0 0 3.961-.275 3.75 3.75 0 0 0 1.494-3.676v-.004l-2.178-12.744-.002-.012a.107.107 0 0 1 .032-.097l.021-.02 9.139-8.817a3.715 3.715 0 0 0-2.204-6.385l-12.485-1.85a1.61 1.61 0 0 0-.065-.008l-.017-.006-.011-.015a1.917 1.917 0 0 0-.032-.068l-5.67-11.447A3.715 3.715 0 0 0 24.999.99Z" clip-rule="evenodd"/>
</svg>
