<svg xmlns="http://www.w3.org/2000/svg" width="30" height="30" fill="currentColor" viewBox="0 0 30 30">
  <path fill-rule="evenodd" d="M19.72 7.938c0 2.987-2.328 5.425-5.208 5.425l-.012-.013c-2.868 0-5.208-2.438-5.208-5.425 0-2.987 2.352-5.425 5.22-5.425s5.208 2.45 5.208 5.438Zm-1.8-.013c0-1.95-1.524-3.55-3.408-3.55-1.872 0-3.408 1.6-3.408 3.55 0 1.95 1.536 3.55 3.408 3.55 1.872 0 3.408-1.6 3.408-3.55Z" clip-rule="evenodd"/>
  <path d="M14.428 15.237c3.204 0 5.712.937 7.452 2.787v-.012c2.456 2.607 2.449 6.058 2.448 6.28v.007c-.012.513-.408.925-.9.925h-.012c-.504-.012-.888-.437-.888-.95 0-.062 0-2.912-1.944-4.962-1.392-1.463-3.468-2.213-6.156-2.213-2.688 0-4.764.75-6.156 2.213-1.944 2.062-1.944 4.937-1.944 4.962 0 .513-.396.95-.888.95-.432.025-.912-.4-.912-.912v-.006c0-.21-.008-3.674 2.448-6.282 1.74-1.85 4.248-2.787 7.452-2.787Z"/>
</svg>
